<svg version="1.2" xmlns="http://www.w3.org/2000/svg" viewBox="0 0 500 500" width="500" height="500">
	<title>farmhands-logo</title>
	<style>
		.s0 { fill: #f2e6c0 } 
		.s1 { fill: #000000 } 
		.s2 { fill: #14ae5c } 
		.s3 { fill: #9c8744 } 
		.s4 { fill: #6b5c2b } 
	</style>
	<g id="Background">
		<path id="Path 0" class="s0" d="m0 250v250h500v-500h-500z"/>
		<path id="Path 1" fill-rule="evenodd" class="s1" d="m250.3 75c1.2 0.1 5.1 2.2 8.7 4.8 3.6 2.6 9.4 7.4 12.9 10.7 3.5 3.3 8.4 9.2 11 13 2.6 3.8 5.8 9.7 7.1 13 2.1 5.1 2.4 7.8 2.5 30l-4.5 9c-2.5 4.9-6.1 11-8.1 13.5-1.9 2.5-6 6.3-9 8.5-3 2.1-7.2 4.4-13.4 6.2l-0.7 10.9c-0.5 6-0.5 24.6 0.4 71.9l-9.4 9.2c-5.1 5-11.8 11.2-14.8 13.8-3 2.6-10.7 8.2-17 12.5-7.6 5.2-14.7 11.1-21 17.7-5.3 5.4-11.7 12.7-14.2 16.3-2.6 3.6-6.5 10.3-8.6 15-2.2 4.7-5 11.9-6.1 16-1.1 4.1-2.6 9.5-4.2 16.5l-4.6-4.5c-2.5-2.5-7.3-8.1-10.6-12.5-3.4-4.4-8.2-11.6-10.7-16-2.5-4.4-5.5-10-6.7-12.5-1.1-2.5-3.3-8.3-4.8-13-1.8-5.8-2.9-12.3-3.5-20.5-0.5-6.6-0.9-21.9-0.9-34 0-12.1 0.4-23.8 0.9-26 0.5-2.2 2-4.8 3.2-5.7 1.3-1 3.5-1.8 5-1.8 1.6 0 4.9 0.8 7.5 1.8 2.7 1 7.7 3.8 11.3 6.3 3.6 2.6 7.7 6.5 9.2 8.8 1.6 2.2 3.1 5.5 4.3 10.1h83l0.7-3.7c0.4-2.1 0.8-19.9 0.8-75.3l-7.8-3.6c-5.9-2.8-9.4-5.4-14.7-10.8-4.3-4.4-8.3-9.7-10.2-13.6-1.8-3.6-3.8-9.2-4.4-12.5-0.6-3.3-0.9-9.3-0.5-13.5 0.3-4.1 1.2-9.8 2-12.5 0.8-2.8 3.8-8.6 6.7-13 2.9-4.4 7.5-10.4 10.3-13.4 2.8-2.9 8.6-8 12.9-11.2 4.3-3.3 8.8-5.9 10-5.9zm-95.1 76c7.3 0.1 16.7 0.7 20.8 1.4 4.1 0.8 11.6 3.1 16.5 5.2 5.4 2.3 11.8 6.1 15.9 9.4 3.8 3 9.6 8.4 12.8 12 3.2 3.6 7.1 9.2 8.7 12.5 1.6 3.3 3.7 9.4 4.6 13.5 1.3 5.3 1.7 9.5 1.3 14.5-0.4 3.8-1.8 10.1-3.3 14-1.4 3.8-3.3 8-4 9.2-0.8 1.3-4.8 3.9-8.8 6-7.2 3.6-7.2 3.6-18.7 3.4-6.7-0.2-13.6-0.9-16.5-1.8-2.8-0.8-7.3-2.7-10-4-2.8-1.4-7.5-4.5-10.5-6.9-3-2.3-7.6-6.9-10.2-10.1-2.5-3.2-6.1-8.7-7.9-12.3-1.7-3.6-4.3-9.7-5.6-13.5-2.1-6.5-2.3-8.6-2.3-27.8 0-19.4 0.1-20.8 2-22.7 1.8-1.8 3.3-2 15.2-2zm198.3 0.7c4.4 0.2 8.4 0.9 9 1.4 0.6 0.6 1 8.7 1 20.2 0 17.4-0.2 19.9-2.4 26.7-1.3 4.1-3.8 10.4-5.6 14-1.8 3.6-5.9 9.9-9.2 14-3.3 4.1-8.2 9.5-10.9 11.9-2.7 2.4-7.6 5.7-10.9 7.2-3.3 1.6-9.6 3.8-14 4.9-5.8 1.6-9.7 2-14 1.6-3.3-0.3-8-1.3-10.5-2.1-2.5-0.8-6.5-3.2-8.9-5.2-2.6-2.3-5.5-6.3-7.5-10.3-3-6.3-3.1-6.9-3-19.5 0-10.9 0.4-13.9 2.2-18.5 1.1-3 4.3-8.7 7-12.5 2.7-3.8 8.4-10.2 12.8-14 4.3-3.9 9.5-8 11.4-9.2 1.9-1.1 8-3.8 13.5-5.8 8.3-3.1 11.9-3.9 21-4.5 6-0.5 14.6-0.6 19-0.3zm11.7 86.5c5.9 0.2 8.3 0.8 10.5 2.4 1.5 1.1 3.4 3.2 4.1 4.5 1 1.9 1.2 10 0.9 35.9-0.3 27.7-0.7 34.5-2.1 39.5-0.9 3.3-2.7 8.5-3.8 11.5-1.2 3-4.3 9.1-6.9 13.5-2.6 4.4-6.6 10.5-8.9 13.5-2.2 3-9.8 11.7-16.8 19.4-7 7.6-16.3 17.3-20.7 21.5-4.5 4.2-11.4 10.1-15.5 13.2-4.1 3.1-10.9 7.5-15 9.7-4.1 2.2-10.7 5-14.5 6.2-3.9 1.1-11.3 2.8-16.5 3.5-5.2 0.8-11.8 1.5-14.5 1.5-2.8 0-9.3-0.7-14.5-1.6-5.2-0.9-13.6-2.9-18.5-4.5-7-2.3-10.9-4.3-17.5-9.3-4.7-3.5-12.1-10.1-24.5-22.8l0.8-7.7c0.4-4.2 2.4-12.5 4.5-18.6 2-6.2 5.9-14.7 8.7-19.4 2.7-4.6 7.3-11.1 10-14.5 2.8-3.3 8.2-8.6 12-11.7 3.9-3.1 11.5-8.5 17-11.9 5.5-3.5 12-7.9 14.5-9.8 2.5-2 10.3-8.8 17.3-15.2 7.1-6.3 14.7-12.8 17-14.3 2.3-1.5 6-3.3 8.2-3.9 2.9-0.7 5.7-0.7 10 0.1 3.3 0.6 7.7 2.2 9.7 3.6q3.8 2.5 6.5 8.3c2.2 4.5 2.8 7.1 2.8 12.7 0 5.9-0.5 7.8-3 12-1.7 2.9-10.7 12.7-21.7 23.5-10.3 10.2-18.8 18.9-18.8 19.5 0 0.6 2.1 0.7 5.7 0.3 3.4-0.4 8.9-2.2 13.3-4.4 6.7-3.3 9.8-6 28.1-24.3 11.3-11.3 21.3-22 22.1-23.6 1.1-2.2 1.7-8.2 2.2-22 0.4-10.7 1.2-19.9 1.8-21 0.7-1.1 3.2-4.2 5.7-6.9 2.5-2.7 6.4-5.7 8.6-6.8 3.1-1.4 5.8-1.8 11.7-1.6zm-103.6-144.4c-0.3 0.4-0.1 1.5 0.4 2.5 0.6 0.9 1.7 1.7 2.5 1.7 0.8 0 1.7-0.3 1.9-0.7 0.2-0.5-0.7-1.6-1.9-2.5-1.3-0.9-2.6-1.4-2.9-1zm-38.1 15c-1.3 2-3.4 6.2-4.6 9.2-1.2 3.4-2.3 9.3-2.7 15.3-0.5 7.5-0.4 9.7 0.5 9.7 0.7 0 1.5-1 1.7-2.2 0.3-1.3 0.7-6.1 0.9-10.8 0.3-6.2 1-9.7 2.7-13 1.3-2.5 2.8-6.2 3.5-8.2 0.7-2.1 1.1-3.8 0.9-3.8-0.2 0-1.5 1.7-2.9 3.8zm31.2 8.3c-0.4 0.9-0.6 13.4-0.4 27.7 0.1 15.7 0.6 26.5 1.2 27.1q1 1 0.7-26.2c-0.2-15-0.4-27.9-0.6-28.7-0.2-1.3-0.4-1.2-0.9 0.1zm-8.2 15.6c-0.5 0.3-0.8 9-0.7 19.2 0.1 12 0.5 18.2 1.1 17.6 0.6-0.6 1.1-9.2 1.3-19.3 0.2-10 0-18.2-0.3-18.2-0.3 0-0.9 0.3-1.4 0.7zm81.5 48.9c-1.7 1.4-3.1 3.2-3.1 4 0.1 1 1.1 0.7 3.6-1.1 1.9-1.4 4.1-2.2 4.7-1.9 0.9 0.4-0.2 2.2-3.2 5.3-2.5 2.5-6.3 6.5-8.5 8.9-2.2 2.3-3.4 4.2-2.7 4.2 0.7 0 5.1-3.8 9.7-8.5 4.7-4.7 8.5-9.1 8.5-9.7 0-0.7-0.5-1.9-1.2-2.6-0.7-0.7-2-1.2-3-1.2-0.9 0-3 1.2-4.8 2.6zm-45.1 6.2c-0.8 1.6-2.9 5.7-4.6 9.3-3.1 6-3.3 7.1-3.3 16.7 0 5.6 0.2 10.9 0.5 11.7 0.3 0.8 0.8 1.5 1.2 1.5 0.5 0 0.8-5.3 0.8-11.8v-11.7c6.6-13.6 8.5-17.7 8.5-18 0-0.3-0.4-0.5-0.9-0.5-0.4 0-1.4 1.3-2.2 2.8zm11.9 26c-4.5 4.2-9.6 9.2-11.5 11-1.8 1.7-3.1 3.4-2.8 3.7 0.3 0.3 1.3 0.1 2.2-0.4 1-0.5 6.5-5.7 12.3-11.5 5.7-5.8 9.9-10.6 9.2-10.6-0.7 0-5 3.5-9.4 7.8zm52.3-3.1c-1.2 2.3-2.2 4.5-2.2 4.8 0.1 0.3 0.5 0.5 1.1 0.5 0.5 0 1.7-1.6 2.5-3.5 0.8-1.9 1.3-4.1 1.2-4.7-0.2-0.7-1.4 0.6-2.6 2.9zm-10.4 15.8c-2 2.5-3.4 4.5-3 4.5 0.5 0 2-1.2 3.4-2.7 1.4-1.6 2.8-3.6 3.1-4.5 0.3-1 0.5-1.8 0.4-1.8-0.1 0-1.9 2-3.9 4.5zm-48 3.8c-2.5 2.8-4.3 5.5-4.1 6 0.2 0.4 2.5-1.6 5.1-4.4 2.7-2.9 4.9-5.6 4.9-6 0.1-0.5-0.2-0.9-0.6-0.9-0.5 0-2.9 2.4-5.3 5.3zm35.8 5.5c-1.7 1-5.6 2.9-8.8 4.3-3.1 1.3-5.6 2.5-5.5 2.7 0.2 0.2 2.1-0.2 4.3-0.9 2.2-0.6 6.2-2.6 8.8-4.3 2.6-1.7 4.7-3.2 4.7-3.3 0-0.2-0.1-0.3-0.3-0.3-0.1 0-1.6 0.8-3.2 1.8z"/>
		<path id="Path 2" class="s2" d="m246 86c-2.2 2.2-3.7 4.3-3.3 4.7 0.5 0.3 0.2 0.3-0.5 0-0.7-0.4-4.1 2.1-8.4 6.2-4.5 4.2-7.4 7.8-7.5 9.2-0.2 1.3-1.7 5.3-3.4 8.9-2.6 5.3-3.2 7.9-3.4 14-0.1 4.1-0.2 8.5-0.3 9.8-0.1 1.2-0.8 2.8-1.6 3.4-1 1-1.1 2.6-0.4 7.3 0.5 3.3 0.6 6.6 0.3 7.3-0.3 0.6-0.1 1.2 0.5 1.2 0.6 0 1 0.6 1 1.2 0 0.7 1.9 2.2 4.3 3.2 2.3 1.1 5.2 2 6.5 2 1.4 0.1 2.4 0.8 2.7 2.1 0.3 1.1 1.5 2.3 2.8 2.7 1.7 0.5 2.9-0.1 5.4-3 3.2-3.7 3.2-3.8 3-13.6-0.1-7.2 0.1-10 1-10.3 0.8-0.2 1.3-2 1.3-4.8 0-3.1 0.5-4.7 1.5-5 0.8-0.3 1.5-1.6 1.5-3 0-1.4 0.7-3.8 1.5-5.5 0.8-1.7 1.9-3 2.5-3 0.6 0 1-0.9 1-2 0-1.1 0.4-2.2 1-2.5 0.7-0.3 1 7.5 1 22.5v23c4.3 0.9 5.6 1.7 5.7 2.3 0.1 0.7 0.4 2.5 0.6 4.2 0.3 2.2 1 3.1 2.6 3.2 1.1 0.2 3-0.1 4.1-0.7 1.1-0.6 2-1.6 2-2.3 0.1-0.6 2.6-3.9 5.7-7.2 3.1-3.3 6.2-7.3 7.1-9 0.8-1.7 1.8-6.6 2.2-11 0.4-4.4 0.7-11.8 0.5-16.5-0.2-7.4-0.7-9.3-3.6-14.9-1.9-3.5-4.1-6.6-4.9-6.9-0.8-0.3-3.2-1.8-5.3-3.4-2.8-2.1-4.5-2.7-6.7-2.3-2.3 0.4-3.2 0-4-1.5-0.6-1.1-0.7-2-0.2-2 0.4 0.1 0-0.6-0.8-1.5-0.8-0.9-1.9-1.5-2.5-1.4-0.6 0.1-1.4 0.1-2 0-0.6 0-1-1.4-1-2.9 0-1.6-0.7-3.7-1.5-4.6-0.8-0.9-2.1-1.7-2.8-1.6-0.7 0-3.1 1.8-5.2 4zm86 74.1c-3 0.5-6.2 1.2-7 1.5-0.8 0.4-2.7 0.8-4.2 1-1.6 0.2-5.8 1.6-9.5 3-3.8 1.5-9 4.2-11.8 6-2.7 1.8-7 5.4-9.5 8-2.5 2.6-4.4 5.1-4.2 5.6 0.1 0.4-0.9 3.1-2.3 5.8-1.4 2.8-2.2 5.2-1.7 5.5 0.4 0.3 0.1 0.5-0.5 0.5-0.7 0-1 0.6-0.7 1.3 0.3 0.6 0 3.1-0.5 5.5-0.6 2.3-1.4 4.2-1.8 4.2-0.5 0-0.9 3.6-1 8-0.3 8-0.3 8 2.5 8.6 1.5 0.4 3.4 0.2 4.2-0.4 0.8-0.5 1.4-1.5 1.3-2.1-0.2-0.6 0.1-1.1 0.7-1.1 0.6 0 0.8-0.8 0.6-1.7-0.2-1 0-2.6 0.5-3.5 0.5-1 2.6-2.5 4.7-3.5 2-0.9 3.9-1.7 4.2-1.7 0.3-0.1 2.1-1.1 4-2.3 1.9-1.2 3.9-2.3 4.5-2.3 0.6 0 5.4-4.2 10.7-9.3 7.3-6.8 9.9-9.9 10-12 0.2-1.5 0.6-2.7 1.1-2.7 0.4 0 3.2-1.3 6.2-3 4.5-2.5 5.6-2.7 6-1.5 0.3 0.8 0.2 2.1-0.2 2.8-0.3 0.6-0.8 2.6-1 4.2-0.2 1.7-1.4 3.8-2.6 4.8-1.2 1-2.6 1.7-3 1.5-0.5-0.2-3.4 2.1-6.5 4.9-3.2 2.9-6.2 5.3-6.8 5.3-0.6 0-6.2 5.2-12.5 11.5-9.7 9.8-11.4 12.1-11.6 15-0.2 2.1 0.3 4.1 1.2 5 0.8 0.8 1.3 1.9 1 2.5-0.3 0.6 0.3 1.7 1.3 2.5 0.9 0.8 3.6 1.5 6 1.5 2.3 0 5.3-0.4 6.7-1 1.4-0.6 4.7-1.1 7.5-1.2 2.7-0.2 5-0.5 5-0.8 0-0.3 0.6-0.6 1.3-0.7 0.6-0.1 1.9-0.3 2.7-0.5 0.8-0.2 2.2-0.8 3.2-1.3 0.9-0.6 4.1-4 7.2-7.7 3.1-3.8 5.6-7.7 5.6-8.8 0-1.1 0.6-3.2 1.4-4.7 0.8-1.6 2.8-3.9 4.5-5.3 1.6-1.4 2.8-2.8 2.5-3.2-0.2-0.5 0-0.8 0.6-0.8 0.6 0 1.3-1 1.6-2.2 0.4-1.3 2-4.3 3.6-6.8l2.9-4.5c-3.7-5-4.1-6.7-3.8-12.5 0.1-5-0.2-7.3-1.1-7.8-1-0.6-1-1 0.3-2.2 0.9-0.8 1.6-2.7 1.5-4.2 0-1.6-0.7-3-1.5-3.3-0.8-0.3-5.2-0.4-9.8-0.4-4.5 0.1-10.7 0.5-13.7 1z"/>
		<path id="Path 3" fill-rule="evenodd" class="s0" d="m251.8 80.1c1.5 0.5 5.6 3.1 9.2 5.8 3.6 2.7 8.9 7.4 11.7 10.5 2.9 3.1 5.1 5.8 4.8 6.1-0.3 0.3-2.2-0.8-4.3-2.3-2-1.6-4.6-3.2-5.7-3.6-1.1-0.4-4.1-2.4-6.7-4.4-2.5-2.1-5.2-5-6-6.7-0.7-1.6-2.1-3.1-3.1-3.2-0.9-0.2-4 1.8-6.9 4.5-2.8 2.6-8.6 8.1-12.8 12.2-5.3 5.2-8.6 9.5-10.8 14-1.8 3.6-3.7 9.6-4.3 13.5-0.7 3.9-0.9 10.6-0.5 15 0.3 4.4 0.8 9.8 1.2 12 0.6 3.7 0.5 3.8-0.8 2-0.8-1.1-2.2-4.2-3.2-7-1-3.2-1.6-8.2-1.6-14 0-4.9 0.6-11 1.4-13.5 0.7-2.5 2.8-7.4 4.6-11 2.3-4.6 6-9.2 12.4-15.6 5-5 11.2-10.5 13.9-12.2 3.9-2.5 5.2-2.9 7.5-2.1zm35.3 39.7c1.1 1 1.4 4.5 1.4 26.9l-4.5 8.9c-2.7 5.2-6.5 10.8-9.5 13.9-2.8 2.8-8.1 6.6-12 8.6-4 2.1-7.5 4.6-8.2 6-1 1.8-1.3 12.7-1.3 82.4l-7.8 7.3c-4.2 4-11.1 10-15.2 13.4-4.1 3.3-12 9.2-17.5 13.1-5.6 3.9-15.1 12.2-21.6 18.6-7.3 7.4-13 14.2-15.7 18.6-2.3 3.9-5.7 10.8-7.6 15.5-2 4.7-4.3 11.5-5.3 15.3-1 3.7-2.2 6.7-2.8 6.7-0.6 0-2.4-1.4-4.2-3.2-1.7-1.8-5.7-6.9-8.8-11.3-3.1-4.4-7.3-10.7-9.2-14-1.9-3.3-4.6-8.7-6-12-1.4-3.3-3.4-9.4-4.4-13.5-1-4.1-2.4-14.5-3-23-0.6-8.5-1-23.9-0.8-34.1 0.4-17 0.6-18.9 2.4-20.8 1.1-1.2 3-2.2 4.2-2.1 1.3 0 2.5 0.4 2.8 1 0.3 0.6 1.7 1 3.2 1 1.6 0 4.6 1.2 6.8 2.6 2.2 1.5 5.7 4.3 7.8 6.3 2.1 2 5.3 6.1 7.2 9.1 1.9 3.2 4.3 5.8 5.6 6.2 1.3 0.4 18.1 0.7 37.4 0.7 19.2 0 37.3-0.4 40.2-0.7 2.9-0.4 6-1.5 7-2.5 1.7-1.6 1.8-4.5 1.8-40.6 0-27.5-0.3-39.2-1.1-40.2-0.7-0.8-4.9-3.4-9.4-5.9-4.6-2.5-10.7-6.9-13.7-9.7-2.9-2.9-5.3-5.7-5.3-6.3 0-0.6 0.4-1 1-1 0.6 0 3.4 1.6 6.2 3.6 2.9 2 6.5 4.2 8 5 1.6 0.8 2.8 1 2.8 0.4 0-0.6 1.4-2.5 3.1-4.2 3-3.2 3-3.5 2.5-10.5-0.3-4-0.3-8.7 0.1-10.3 0.5-1.7 1.1-3 1.5-3 0.5 0 0.8 6.4 0.8 14.3 0 8.7 0.3 13.8 0.9 13.2 0.5-0.6 1.1-10.2 1.3-21.5 0.3-16.8 0.7-21.1 2.1-23.7 0.9-1.8 2.1-3.3 2.7-3.3 0.6 0 1.1 9.2 1.2 25 0.2 18.5 0.6 25.2 1.6 26.2 1 1.1 1.2 0.3 1.2-4.2 0-5.1 0.2-5.5 2.3-5.2 1.4 0.2 2.3 1.1 2.5 2.5 0.1 1.2 0.2 3.2 0.2 4.5 0 1.7 0.6 2.2 2.5 2.2 1.4 0 3.4-0.4 4.5-1 1.1-0.6 2-1.6 2-2.2 0.1-0.7 2.6-4 5.7-7.3 3.1-3.3 6.2-7.3 7.1-9 0.8-1.7 1.8-6.8 2.3-11.5 0.5-4.7 0.6-11.7 0.2-15.5-0.5-5.9-0.3-6.8 0.8-5.7zm-135.1 34.4c1.9-0.1 8.6 0.3 14.7 0.8 8.3 0.7 13.5 1.8 19.5 4 4.6 1.7 11 4.7 14.3 6.8 3.3 2 9.7 7.2 14.2 11.7 6.3 6.2 8.9 9.7 11.7 15.5 2 4.1 4.3 10.9 5.2 15 1.1 4.9 1.5 9.4 1 13-0.3 3.3-2.2 8.7-4.6 13.8-3.8 7.8-4.3 8.3-9.8 11-5.2 2.4-6.7 2.7-16.7 2.7-8.9-0.1-12.4-0.5-18.5-2.5-4.5-1.4-9.7-4.1-13-6.6-3-2.2-8.2-7-11.6-10.5-3.4-3.5-7.4-8.9-8.9-11.9-1.5-3-3.9-8.7-5.3-12.5-2.2-6.3-2.5-9-2.9-25.5-0.4-13.8-0.2-19.2 0.8-21.2 0.8-1.6 2.3-2.8 3.9-3.1 1.4-0.2 4.1-0.5 6-0.5zm200 0.5c3.6 0.2 6.6 0.5 6.8 0.6 0.1 0.1 0.7 3.8 1.3 8.2 0.6 4.4 0.9 11.9-0.1 25.5l-2.2-2.7c-1.8-2.4-2-3.7-1.6-8.3 0.3-3 0.1-6.6-0.4-8-0.5-1.6-0.5-2.9 0.2-3.5 0.6-0.6 1-2.2 1-3.7 0-2.2-0.6-2.9-2.8-3.5-1.5-0.3-7.2-0.3-12.7 0-5.5 0.3-14.3 1.7-19.5 3-5.2 1.4-12.6 4-16.4 5.8-4.1 2-9.8 6-13.9 9.9-3.8 3.6-7.7 7.9-8.6 9.6-0.9 1.6-3.1 5.9-4.8 9.5-3.1 6-3.3 7.1-3.3 16.7 0 5.6 0.2 10.9 0.5 11.7 0.3 0.8 0.9 1.5 1.5 1.5 0.5 0 0.7-0.8 0.4-1.7-0.5-1.4-0.2-1.6 1-1 0.9 0.4 2.4 0.7 3.3 0.7 1.7 0.1 1.7 0.1 0 1-0.9 0.6-1.7 1.4-1.7 2 0 0.6 0.4 1 1 1 0.5 0 11.2-9.9 23.7-22 12.6-12.1 23.8-22.8 25.1-23.7q2.4-1.8 3.3-0.8c0.6 0.7-7.8 10-24.1 26.8-13.7 14.1-24.8 26.1-24.5 26.7 0.3 0.6 2.5-1.1 5-3.7 3.1-3.4 4.4-4.3 4.5-3 0 0.9 0.8 2.4 1.7 3.3 1.2 1 1.4 1.8 0.8 2.4-0.6 0.5-2.4 1-4 1.3-2.4 0.3-2.1 0.4 1.2 0.6 2.4 0 4.5 0.5 4.8 1.1 0.3 0.6 2.5 1 5 1 2.5 0 5.5-0.4 6.7-0.9 1.3-0.4 4.4-1.1 7-1.5 2.7-0.3 4.8-0.3 4.8 0.2 0 0.4-2.7 1.7-6 3-3.3 1.2-5.9 2.5-5.8 2.8 0.2 0.3 2.1 0 4.3-0.6 2.2-0.7 5.6-2.2 7.5-3.5 1.9-1.2 5.7-3.6 8.5-5.3 2.7-1.7 5.8-3.9 6.7-4.9 0.9-1 2.6-3.6 3.8-5.8 1.1-2.2 2-4.9 2-6 0-1.1 0.9-3.5 2-5.2 1.1-1.8 2.2-3.3 2.5-3.3 0.3 0-0.2 1.7-1 3.8-0.8 2-1.3 3.9-1 4.2 0.3 0.3 1.2-0.4 2-1.5 0.8-1.1 1.7-3.1 2-4.5 0.3-1.4 2.1-5.6 4.1-9.5 2-3.8 4.1-7.4 4.6-8 0.7-0.7 0.9 0.4 0.4 3.5-0.3 2.5-2.6 8.6-5.1 13.5-2.5 4.9-7.4 12.6-10.9 17-3.5 4.4-8.3 9.6-10.7 11.6-2.4 2-6.7 4.8-9.4 6.2-2.8 1.5-8.1 3.4-12 4.3-4.4 1-9.6 1.4-14 1.2-4.3-0.3-8.5-1.3-11-2.5-2.2-1.1-5.4-3.2-7-4.5-1.6-1.4-4-4.5-5.2-6.9-1.3-2.4-2.8-7.5-3.4-11.4-0.6-3.8-0.9-10.1-0.7-14 0.4-5.9 1.1-8.3 4.9-15.4 2.4-4.6 6.9-11 9.9-14.4 3-3.3 8-7.9 11-10.2 3-2.3 8.6-5.8 12.5-7.8 3.9-2 9.7-4.3 13-5.2 3.3-0.9 10.3-2 15.5-2.5 5.2-0.4 12.4-0.6 16-0.3zm-13.7 22.1c0.5 0.4 0.6 1.7 0.3 3-0.6 2.1-0.7 2.1-2.6 0.5-1.8-1.7-1.9-1.9-0.3-3 0.9-0.6 2.1-0.9 2.6-0.5zm-0.9 6.2c0.1 0 0 1.2-0.3 2.7-0.3 1.4-1.6 3.3-2.9 4.2-1.2 0.9-2.5 1.4-2.7 1.1-0.2-0.3 0.9-2.2 2.6-4.2 1.7-2.1 3.1-3.8 3.3-3.8zm-56.7 15.5c0.2 0.6-0.1 2.9-0.6 5.3-0.6 2.3-1.6 4.2-2.1 4.2-0.6 0-0.7-1-0.4-2.2 0.3-1.3 1-3.6 1.7-5.3 0.6-1.6 1.3-2.6 1.4-2zm18.2 10.5c0.3 0-2 2.6-5.2 5.8-4.6 4.6-5.9 5.4-6.7 4.2-0.5-0.9-0.5-2.2 0.1-3.2 0.5-1 2.6-2.5 4.6-3.5 2.1-0.9 4.1-1.7 4.5-1.7 0.3-0.1 1-0.4 1.4-0.8 0.4-0.5 1-0.8 1.3-0.8zm65.8 33.2c7 0.3 8.6 0.6 10.5 2.6 2.1 2.1 2.4 3.6 3.1 16.5 0.4 7.8 0.5 21 0.1 29.2-0.3 8.3-1.4 19.1-2.4 24-1 4.9-3.1 12.4-4.7 16.5-1.6 4.1-5.8 12-9.4 17.5-3.6 5.5-10.6 14.5-15.4 20-4.9 5.5-15.2 16.3-22.9 24-7.8 7.8-17.2 16.4-21.1 19.3-3.9 2.9-11.1 7.2-16 9.7-4.9 2.4-11.7 5.1-15 6-3.8 1.1-11.7 1.9-21.5 2.2-12.3 0.4-17.3 0.2-24-1.2-4.7-0.9-11.7-3-15.5-4.6-3.9-1.6-9.9-5.1-13.5-7.8-3.6-2.7-10-8.3-14.3-12.5-7.7-7.6-7.7-7.6-7.7-12.8 0-2.9 1.1-9.6 2.5-14.8 1.4-5.2 4.8-14 7.5-19.5 2.7-5.5 7.3-12.9 10.3-16.5 2.9-3.6 8.6-9.3 12.7-12.8 4.1-3.5 11.8-8.9 17-12.1 5.2-3.3 11.8-7.6 14.6-9.7 2.8-2.2 11.2-9.5 18.7-16.4 7.5-6.9 15.6-13.5 17.9-14.8 2.9-1.5 6-2.2 9.5-2.2 2.9 0 6.9 0.8 9 1.8 2 0.9 4.9 3.2 6.5 5 1.5 1.7 3.5 5.6 4.4 8.5 1.2 4.2 1.3 6.1 0.4 9.7-0.7 2.5-2.5 6.5-4 9-1.6 2.5-6.7 8.1-11.2 12.6-4.6 4.5-12.7 12.3-18.1 17.5-6.8 6.5-9.7 10-9.5 11.3 0.2 1 1.4 2.7 2.8 3.7 2.3 1.8 2.9 1.8 9.5 0.4 3.9-0.9 9.9-3.2 13.5-5.2 4.7-2.6 11.5-8.6 24.8-21.7 10.1-10 20-20.6 25.8-29.1l1.2-19.2c0.8-12.5 1.7-20.3 2.6-22 0.8-1.6 2.9-4.2 4.8-5.9 1.8-1.7 4.4-3.9 5.8-4.8 2-1.4 4.2-1.7 10.7-1.4z"/>
		<path id="Path 4" fill-rule="evenodd" class="s1" d="m160.5 158.1c2.2 0 7.4 0.6 11.5 1.3 4.1 0.7 10.9 2.7 15 4.4 4.1 1.8 10.3 5 13.8 7.2 3.4 2.2 6.4 4.4 6.7 5 0.3 0.6 0.1 1-0.5 1-0.6 0-5.2-2.2-10.3-5-5-2.7-11.9-5.9-15.2-7-3.3-1.2-9-2.8-12.8-3.5-3.7-0.8-7.5-1.2-8.4-0.9-1 0.4-2.9 0.3-4.3 0-2-0.6-2.2-0.9-1-1.6 0.8-0.6 3.3-1 5.5-0.9zm-11.5 3.9c0.4 0 0.5 0.8 0.1 1.8-0.3 0.9-0.6 7.8-0.6 15.2 0 7.4 0.4 16.9 0.8 21 0.7 7.1 0.7 7.3-0.8 4.8-0.8-1.6-2-6.3-2.6-10.5-0.6-4.3-0.9-12.6-0.7-18.4 0.2-7 0.8-11.2 1.7-12.2 0.7-1 1.7-1.7 2.1-1.7zm24.4 17.6c0.6 0.2 5.2 5 10.1 10.6 4.9 5.7 15.4 16.7 23.3 24.5 7.8 7.9 14.9 14.3 15.7 14.3 0.8 0 2-1.2 2.6-2.7 0.6-1.6 0.9-6.2 0.6-10.8-0.3-6.5-1.1-9.5-4.1-16-2.1-4.4-4.6-9.2-5.7-10.7-1-1.6-1.8-3.6-1.6-4.5 0.2-1.3 1.4-0.1 4 3.7 2 3 5.1 9.3 6.7 14 2.2 6.2 3 10.3 2.9 15 0 3.6-0.5 8.1-1.2 10-1 2.8-1.8 3.6-4.2 3.8-2.7 0.4-5-1.6-26.5-23.7-12.9-13.2-24.1-24-24.8-24.1-0.6 0-1.2 0.4-1.2 1 0 0.6 1.7 2.9 3.8 5.2 2 2.4 12.4 13.3 23 24.3 10.5 11 19.4 20.9 19.7 22 0.4 1.6-0.1 1.4-2.5-1-1.6-1.7-2.7-3.3-2.5-3.7 0.3-0.5-0.3-1-1.2-1.2-1-0.3-9-7.8-17.7-16.8-8.7-9-18.3-19.5-21.2-23.3-3-3.8-5.5-7.3-5.6-7.7-0.1-0.4 1.3-1.1 3.1-1.6 1.8-0.5 3.9-0.7 4.5-0.6zm-15.6 40.4c0.4 0.1 4 3.2 8 7 5.1 4.9 9.5 8.1 15 10.7 7.3 3.5 8.4 3.7 20.7 4.3 10.6 0.5 12.3 0.7 9 1.4-2.2 0.5-7.8 0.6-12.5 0.3-4.7-0.3-11.2-1.5-14.5-2.6-3.3-1.2-8.2-3.6-11-5.5-2.7-1.8-7.4-5.6-10.2-8.4-2.9-2.9-5.3-5.6-5.3-6.2 0-0.6 0.3-1 0.8-1zm22.9 10.1c3.9 2 9.8 3.7 18 5.2 6.8 1.2 11.7 2.5 11 3-0.7 0.4-3.4 0.5-6.2 0.1-2.7-0.3-8.4-1.5-12.5-2.6-4.1-1.1-9.6-3.1-12.2-4.4-2.7-1.3-4.6-2.8-4.4-3.3 0.3-0.5 3.1 0.4 6.3 2zm-43.7 16.4c1.4 0.4 2.9 1.1 3.5 1.6 0.6 0.6-0.5 0.9-3.2 0.9-3.5 0-4.5 0.4-5.2 2.3-0.9 2-1 2-1.2 0.3-0.2-1.1 0.6-2.8 1.6-3.8 1.4-1.3 2.7-1.7 4.5-1.3zm226.5 0.5c2.7 0 4.3 0.4 4 1-0.3 0.6-2.3 1-4.5 1-2.2 0-4-0.4-4-1 0-0.6 2-1 4.5-1zm-13.5 8c0.5 0 1 0.2 1 0.5 0 0.3-0.8 2.1-1.7 4-1 2-2.1 3.5-2.5 3.5-0.5 0-0.7-0.2-0.6-0.5 0.1-0.3 0.7-2.1 1.4-4 0.7-1.9 1.8-3.5 2.4-3.5zm-218.9 12c0.5 0 0.9 1.1 0.9 2.5 0 1.5 0.7 2.7 1.8 3.1 1.5 0.5 1.5 0.8-0.5 2-2.1 1.3-2.3 2.1-2 8.8 0.1 4.1-0.1 7.8-0.5 8.3-0.5 0.4-1 0.6-1.3 0.3-0.3-0.3-0.3-6 0.1-12.7 0.3-6.8 1-12.3 1.5-12.3zm26.2 5.1c10 0.1 23.1 0.4 40.2 1.4l-7.5 0.8c-4.1 0.4-14.2 0.6-22.5 0.3-8.2-0.2-18-0.5-21.7-0.5-3.8-0.1-6.8-0.5-6.8-1.1 0-0.6 6.7-1 18.3-0.9zm60.2 1h4c2.2-0.1 4.7 0.3 5.5 0.9 1.2 0.7 1 1-1 1.5-1.5 0.4-3.7 0.1-5.5-0.9zm68.8 3c0.4 0 1.9 0.4 3.5 1 1.5 0.6 3.9 2.3 5.5 3.8 1.5 1.5 2.7 3.3 2.7 4.2 0 0.9-1.1 0.2-2.8-1.8-1.9-2.4-3.8-3.5-6.7-3.9-3.3-0.5-5-0.1-9.7 2.5-3.2 1.7-6 2.9-6.3 2.7-0.3-0.3 1.2-1.9 3.3-3.6 2-1.6 5.1-3.4 6.7-3.9 1.6-0.5 3.3-0.9 3.8-1zm-58 2c0.4 0 0.7 0.4 0.7 1 0 0.5-2.4 2.9-5.2 5.3-2.9 2.4-10 7.7-15.8 11.7-5.8 4.1-12.7 9.4-15.4 11.9-2.6 2.5-8.2 8.7-12.2 13.8-4.1 5.1-7.6 9-7.9 8.8-0.3-0.3 0-1.6 0.6-2.8 0.7-1.2 3.3-4.9 5.9-8.2 2.6-3.3 7.6-8.7 11.2-12 3.5-3.3 10.6-9 15.8-12.7 5.2-3.7 10.4-7.5 11.5-8.5 1.1-1 3.8-3.3 6-5.1 2.2-1.8 4.3-3.3 4.8-3.2zm143.8 3.5c0.6 0.6 0.7 4.4 0.3 9.5-0.5 6.6-0.9 8-1.6 6.5-0.6-1.2-0.8-5.1-0.3-9.5 0.4-5 1-7.2 1.6-6.5zm-72.4 11.5c0.3 1.9 0.2 4.8-0.2 6.5-0.3 1.6-2.6 5.2-5.1 8-2.4 2.7-4.4 4.4-4.4 3.7 0-0.7 1.3-2.9 2.9-5 1.6-2.1 3.7-5.4 4.5-7.5 0.9-2.1 1.7-5 1.8-6.5 0.1-2.2 0.2-2.1 0.5 0.8zm-116.9 1.8c2.6 0.1 5.4 0.5 6.2 0.8 1.3 0.4 1.3 0.6 0 1.3-0.9 0.5-3.5 0.4-6.3-0.3-2.6-0.6-4.7-1.4-4.7-1.6 0-0.3 2.1-0.4 4.8-0.2zm-35.5 5.2c3.5 0 5.5 0.3 5.2 1-0.3 0.5-2.2 1-4.2 0.9-2.1 0-4.5-0.4-5.3-0.9-1.1-0.7 0.2-1 4.3-1zm-16.4 3.3c0.6 0.4 1.4 2.3 1.7 4.4 0.3 2.1 1.4 7.1 2.5 11.3 1.1 4.5 1.5 7.9 0.9 8.5-0.5 0.6-1.7-1.7-2.9-6-1.1-3.9-2.3-9.7-2.6-12.9-0.5-4.1-0.3-5.8 0.4-5.3zm210.3-0.3c0.5 0 0.8 0.3 0.8 0.7 0 0.4-1.4 2.9-3.2 5.4-1.8 2.6-7.6 9.1-12.9 14.5-5.3 5.4-13.4 13.5-18 17.9-4.6 4.4-9.8 8.5-11.4 9.1-2.2 0.7 2.6-4.5 17-18.8 11-10.8 21.6-21.8 23.5-24.2 1.9-2.5 3.8-4.6 4.2-4.6zm-129.7 28c0.4 0-1.6 2.5-4.3 5.7-2.7 3.2-7.1 9.1-9.8 13.3-2.6 4.1-6 10.2-7.5 13.5-1.5 3.3-3.9 10.3-5.3 15.7-1.4 5.4-2.6 11-2.6 12.5-0.1 2.1-0.3 2.4-1 1.3-0.5-1-0.3-4.8 0.6-9.8 0.8-4.5 2.8-12 4.4-16.5 1.7-4.6 5.9-12.4 9.4-17.7 3.5-5.3 8.4-11.5 11-13.8 2.5-2.3 4.8-4.2 5.1-4.2zm-41.8 3.5c0.2 0.3-0.7 1.9-1.9 3.7-1.2 1.8-3.8 6.9-5.8 11.4-1.9 4.5-3.9 8.5-4.3 9-0.4 0.5-0.7 0.2-0.7-0.6 0-0.9 1.6-5.1 3.5-9.5 1.9-4.4 4.7-9.5 6.1-11.2 1.5-1.8 2.9-3 3.1-2.8zm191.2 4c0.3 0.2-1 2.9-2.9 6-1.9 3.1-7.7 10.5-12.8 16.5-5 6-9.6 11-10.2 11-0.6 0-0.2-1.1 0.7-2.4 1-1.3 4.5-5.5 7.8-9.3 3.3-3.8 8.4-10.3 11.4-14.5 3-4.2 5.7-7.5 6-7.3zm-218.9 3.5c0.6 0 1.6 1 2.4 2.2 0.7 1.2 2.6 4.5 4.2 7.3 1.6 2.7 3.2 5.7 3.6 6.7 0.5 1.1 0.4 1.6-0.2 1.3-0.6-0.3-2.9-3.4-5.1-6.8-2.3-3.4-4.5-7.3-5-8.5-0.5-1.4-0.4-2.2 0.1-2.2zm112.9 5c0.4 0 0.6 1.2 0.3 2.7-0.3 2 0.4 3.8 2.7 6.5 1.7 2.1 4 3.8 5.1 3.8 1.1 0 2 0.4 2 1 0 0.5-1.2 1-2.8 1-1.5 0-3.8-1-5.1-2.3-1.4-1.2-3.1-3.7-3.8-5.5-0.9-2.3-1-3.8-0.3-5.2 0.6-1.1 1.4-2 1.9-2zm29.8 9.1c0.7-0.1 1.3 0.3 1.3 0.9 0 0.5-1.5 1.7-3.3 2.6-1.7 0.9-5.8 1.9-9 2.2-3.5 0.4-5.7 0.3-5.7-0.3 0-0.6 2.3-1.4 5.2-1.8 2.9-0.4 6.4-1.4 7.8-2.2 1.4-0.7 3.1-1.4 3.7-1.4zm-68.9 63.2c0.9 0.3 3.5 0.9 5.7 1.2 2.2 0.4 4.7 1.1 5.5 1.6 1.3 0.7 1.2 0.8-0.3 0.8-0.9 0-4-0.4-6.7-0.9-2.8-0.6-5.2-1.5-5.5-2.1-0.3-0.7 0.2-0.9 1.3-0.6z"/>
		<path id="Path 5" class="s3" d="m354.2 250.3c-2.3 2-4 4.1-3.7 4.7 0.3 0.5-0.2 2.5-1.1 4.2-0.9 1.8-2.2 3.6-2.8 4-0.6 0.4-0.8 0.8-0.3 0.8 0.4 0 0.3 0.8-0.2 1.7-0.5 1-1.2 5.3-1.5 9.5-0.4 5.4-0.2 8.4 0.7 9.7 0.9 1.5 0.9 2.5 0 4.3-0.6 1.3-1.7 4.8-2.4 7.8-0.7 3-1.3 6.2-1.4 7 0 0.8-1.7 3.7-3.7 6.5-2 2.7-7.5 8.8-12.2 13.5-4.8 4.7-8.6 9.2-8.6 10 0.1 0.8-1.6 3.2-3.7 5.3-2.1 2-4.5 3.7-5.3 3.7-0.8 0-2.4 0.9-3.5 2.1-1.1 1.1-3.4 2.9-5 3.9-1.6 1-4.4 2.1-6 2.4-1.6 0.3-3.4 1.2-4 2.1-0.6 0.8-1.4 1.1-1.8 0.7-0.4-0.4-1.1 0.4-1.5 1.7-0.4 1.3-2.1 3-3.7 3.9-1.6 0.8-5.6 1.7-8.8 2.1-4.2 0.4-5.7 0.3-5.7-0.7 0-0.6-0.7-1.2-1.5-1.2-0.8 0-1.5 0.4-1.5 1 0 0.6-1.8 0.9-3.9 0.7-2.2-0.1-3.7-0.5-3.5-1 0.2-0.4 0.1-0.7-0.3-0.7-0.5 0-1.5-1.1-2.3-2.4-0.8-1.4-1.7-2.4-2-2.2-0.3 0.2-0.4-0.9-0.2-2.5 0.1-1.6 0.2-3.3 0.2-3.9 0-0.6 0.8-1.3 1.8-1.8 0.9-0.4 9.2-8.4 18.4-17.7 9.2-9.4 16.8-17.6 16.8-18.3 0-0.6 1.3-2.9 2.9-5 1.5-2 3.3-4.7 4-6 0.6-1.2 0.8-2.2 0.4-2.2-0.5 0.1-0.3-0.5 0.3-1.2 0.6-0.7 1.4-3.1 1.7-5.3 0.4-2.2 0.2-4.7-0.3-5.5-0.5-0.8-1-1.1-1-0.5 0 0.6-1.3-0.5-2.8-2.3-2.2-2.8-3.5-3.4-7.2-3.6-3.4-0.3-5.7 0.3-9.7 2.5-2.9 1.6-5.6 2.8-6.1 2.6-0.4-0.1-5.8 4.3-12 9.8-6.3 5.5-15.9 13.3-21.5 17.3-5.6 4-13.1 9.1-16.7 11.2-4.5 2.6-8.5 6.2-13.1 11.6-3.6 4.4-8.8 11.3-11.4 15.4-2.7 4.1-4.9 8.1-4.9 8.7-0.1 0.7-0.4 1.3-0.8 1.3-0.5 0-0.6 0.4-0.3 1 0.3 0.6 0.1 1-0.5 1-0.6 0-0.9 0.6-0.8 1.2 0.2 0.7-0.8 5.8-2.1 11.3-1.4 5.7-3.2 10.7-4.3 11.7-1 1-1.8 2.7-1.8 3.8 0 1.1 1.2 2.9 2.8 4.1 1.5 1.2 2.9 3.4 3.2 5.1 0.4 2.3 1.4 3.6 3.8 4.7 2.3 1.1 3.1 2.1 2.7 3.3q-0.5 1.8 2.6 4c1.7 1.3 3.8 2.4 4.8 2.5 0.9 0.1 1.7 0.7 1.9 1.3 0.1 0.5 1.6 1.7 3.2 2.5 1.7 0.8 3.7 1.3 4.5 1 0.8-0.3 1.5-0.2 1.5 0.2 0 0.5 8.2 0.7 18.2 0.5 10.1-0.1 23.5-0.9 29.8-1.7 9.2-1.2 13.6-2.4 22-5.9 5.8-2.4 13.2-5.7 16.5-7.5 3.3-1.7 7.9-5 10.3-7.4 2.4-2.3 5.2-5.8 6.2-7.7 1.1-1.9 5.5-7.4 9.9-12.3 4.5-4.8 8.1-9.1 8.1-9.7 0-0.6 1.1-2 2.4-3.3 1.4-1.2 3.8-4 5.3-6.3 1.5-2.2 4.8-5.9 7.3-8.2 2.5-2.3 4.9-4.1 5.5-4.1 0.6 0 2.1-1.6 3.5-3.5 1.4-1.9 2.8-3.3 3.3-3 0.4 0.2 1.9-2 3.4-4.9 1.5-2.8 3.4-6.8 4.1-8.7 0.7-1.9 1.7-7.6 2.2-12.5 0.6-5.3 0.6-9.4 0.1-10-0.5-0.6-0.7-5.5-0.5-11 0.2-5.5 0.8-10.4 1.3-11 0.4-0.6 0.9-5.9 1-12 0-6.1-0.4-12.8-1-15-0.7-2.2-1.8-4.6-2.5-5.3-0.9-0.7-1.6-0.8-1.9-0.2-0.3 0.6-2.3 1-4.5 1-2.4 0-4.1-0.5-4.3-1.3-0.2-0.7-2 0.3-4.5 2.5z"/>
		<path id="Path 6" class="s2" d="m151 159.9c-0.8 0.5-1.6 2-1.8 3.3-0.2 1.3-0.4 3.6-0.4 5.3-0.1 1.7 0 5 0.1 7.5 0.2 2.5 0 6.1-0.4 8-0.5 2.6-0.2 4.4 1.4 7.2 1.2 2.1 1.9 4.5 1.6 5.3-0.3 0.8-0.8 1.5-1.3 1.5-0.4 0-0.6 2.8-0.4 6.3 0.2 4.9 0.8 7.2 3.1 10.7 1.6 2.5 3.7 4.8 4.8 5.2 1 0.4 2.6 1.3 3.5 2 1.4 1 2.2 1.1 3.8 0 1.7-1 2.1-0.9 2.5 0.3 0.3 0.8 1.7 2.3 3.1 3.2 2.1 1.5 2.9 1.6 4.5 0.5 1.6-1 2.1-0.9 3.2 1.3 0.6 1.3 1.5 2.2 2 2 0.4-0.3 0.7-0.1 0.7 0.5 0 0.6 2.1 1.7 4.8 2.5 3.9 1.3 5.2 1.4 7.5 0.3 1.5-0.7 2.8-1.9 3-2.6 0.1-0.7 2.1 0.4 5 2.8 2.6 2.2 5.6 4 6.7 4 1.1 0 2.2-0.6 2.5-1.3 0.3-0.6 0.7-2.1 0.9-3.2 0.2-1.4-0.7-2.6-2.8-3.9-1.7-1.1-3.8-2-4.8-2-0.9-0.1-2.8-1.2-4.3-2.6-1.5-1.4-5.7-6.1-9.3-10.5-3.6-4.4-6.6-8.5-6.6-9.1-0.1-0.6-2.6-3.8-5.6-7-3-3.3-7.5-8.9-10-12.4-3-4.3-3.8-6.1-2.5-5.3 1.1 0.6 2.9 0.8 4 0.5 1.1-0.3 2.3-1 2.7-1.6 0.4-0.8 1.5-0.7 3.5 0.1 1.6 0.7 5.9 5.4 10.3 11.3 4.1 5.5 7.8 10 8.2 10 0.5 0 1.8 1.7 2.9 3.7 1.2 2.1 5.2 6.8 8.8 10.5 3.6 3.7 7 6.5 7.6 6.1 0.6-0.3 2.2 0.4 3.7 1.6 1.6 1.1 3.5 2.1 4.3 2.1 0.8 0 2.2-1 3.1-2.3 1.1-1.6 1.4-3.6 1-7.2-0.3-2.8-0.6-5.8-0.6-6.8 0-0.9-0.4-1.7-1-1.7-0.6 0-0.8-0.4-0.5-1 0.3-0.6 0.1-1.2-0.5-1.5-0.6-0.3-0.8-0.9-0.5-1.5 0.3-0.6 0.1-1-0.5-1-0.6 0-0.9-0.3-0.8-0.8 0.2-0.4-0.4-2.2-1.2-4-0.8-1.8-1.8-3.3-2.3-3.2-0.4 0-0.5-0.4-0.2-1 0.3-0.6-0.2-1.2-1-1.5-0.8-0.3-1.3-0.9-1-1.5 0.3-0.6 0.1-1.2-0.5-1.5-0.6-0.3-1-1.5-1-2.8 0-1.2-1.3-3.4-2.8-5-1.5-1.5-3.3-2.7-4-2.7-0.6 0-3.1-1-5.5-2.1-2.3-1.2-5.5-2.3-7.2-2.4-1.7-0.1-4.9-1.2-7.3-2.3-2.3-1.2-5.1-3.1-6.2-4.2-1.1-1.1-2-1.7-2-1.3 0.1 0.5-0.5 0.3-1.2-0.4-0.7-0.6-3.6-1.7-6.3-2.3-2.8-0.7-7.5-1.3-10.5-1.4-3-0.2-6.2-0.6-7-0.9-0.8-0.4-2.2-0.3-3 0.2z"/>
		<path id="Path 7" class="s0" d="m181.5 166.6c1.1 0.9 4.4 2.7 7.3 4 2.8 1.3 6 2.2 7 2.1 1-0.2-1.3-1.8-5.8-4-4.1-2.1-8.2-3.7-9-3.7-1.1 0.1-1 0.4 0.5 1.6zm-33.4 9.9c0 4.1 0.3 5.5 0.9 4.5 0.5-0.9 0.6-3.4 0.1-6l-0.9-4.5zm30.9 8.7c3.5 4 9.3 10.1 12.8 13.7 3.5 3.7 5.6 5.4 4.8 3.9-0.9-1.6-2-2.8-2.4-2.8-0.4 0-3.9-4.4-7.9-9.7-3.9-5.4-8.3-10.4-9.7-11-1.5-0.7-3-1.3-3.4-1.3-0.4 0 2.2 3.2 5.8 7.2zm-30.7 6.3c0.4 0.8 0.7 2.6 0.7 4 0 1.4 0.4 2.5 1 2.5 0.5 0 1.2-0.7 1.5-1.5 0.3-0.8-0.1-2.6-0.8-4-0.7-1.4-1.6-2.5-2.1-2.5-0.5 0-0.6 0.7-0.3 1.5zm35.3 13.7c0.5 0.9 4.1 5.5 8.1 10.2 4 4.7 8.4 9.4 9.8 10.4 1.4 0.9 2.9 1.3 3.3 0.9 0.4-0.4-4.4-5.8-10.7-12-6.2-6.2-11-10.4-10.5-9.5zm33.4 19.3c2.5 2.5 5 4.5 5.7 4.5 0.7 0 1.7-1.1 2.3-2.5 0.5-1.4 1-3.5 1-4.7v-2.3c-2.3 3.5-3.7 4.5-4.5 4.5-0.8 0-2.8-0.9-4.3-2-1.5-1.2-3.2-2.1-3.7-2-0.6 0 1 2 3.5 4.5zm-20.9 5.9c-0.1 0.9-1.1 1.9-2.4 2.2-1.8 0.5-1.9 0.8-0.7 1.4 0.8 0.4 3.7 1.1 6.5 1.5 4.7 0.7 4.9 0.6 3.5-1-0.8-1-2.7-2.6-4.1-3.7-2.3-1.7-2.7-1.7-2.8-0.4zm7.8 62.7c-1.3 0.4-5.2 0.7-8.7 0.8-5.1 0.1-6.1 0.4-5.7 1.6 0.3 0.8-0.1 1.7-0.8 1.9-0.7 0.3-3 0-5.2-0.7-2.3-0.6-12-1.1-22.5-1.1-10.2-0.1-19.8 0.2-21.3 0.7-1.5 0.4-2.7 1.1-2.7 1.7 0 0.6 1 1.2 2.2 1.5 1.3 0.3 11.1 0.5 21.8 0.5 10.7 0.1 21.3 0.4 23.5 0.9l4 0.7c-6 1.3-6.4 1.7-5.9 3.7 0.4 1.6 0 2.7-1.8 3.9-2.2 1.6-2.2 1.9-0.8 4.3l1.5 2.6c10.1-10 16-15.1 19.7-18 3.7-2.8 6.4-5.2 5.9-5.4-0.4-0.2-1.9 0-3.2 0.4zm-70 21.4c0.1 0.3 0.6 2.6 1.2 5.3 0.6 2.6 1.4 5.1 1.8 5.5 0.3 0.5 1.5 0.4 2.6-0.2 1.1-0.6 1.4-1.1 0.7-1.1-0.7 0-1.7-0.9-2.2-2-0.7-1.3-0.7-2.6-0.1-3.7 0.8-1.4 0.5-2.1-1.5-3-1.4-0.7-2.5-1-2.5-0.8zm177 24c-3.1 3.1-3.9 4.5-2.7 4.5 0.9 0 3.3-1.7 5.3-3.7 1.9-2.1 3.6-4.1 3.5-4.5 0-0.5-0.4-0.8-0.8-0.8-0.5 0-2.8 2-5.3 4.5zm-165.5 7.5c0.9 1.6 1.7 2.9 1.9 2.8 0.2-0.2 0.7-1.5 1-3 0.6-2.5 0.4-2.8-1.9-2.8-2.5 0-2.5 0-1 3zm43.4 20.1c-0.9 1.9-2.6 7-3.7 11.4-1.2 4.4-2.1 8.4-2.1 9-0.1 0.6 0.5 0.4 1.2-0.3 0.7-0.8 2.5-6.2 3.9-12 1.5-5.9 2.6-10.9 2.5-11.1-0.1-0.2-1 1.1-1.8 3z"/>
		<path id="Path 8" class="s4" d="m132.3 250.8c-0.4 0.9-1.7 2.5-3 3.4-1.3 1-2.3 2.6-2.3 3.5 0 1 0.4 2.2 0.9 2.8 0.5 0.6 1.1 2.1 1.3 3.5 0.2 1.5 1.2 2.8 2.8 3.4 1.4 0.5 5.1 0.6 8.2 0.2 3.2-0.3 5.7-0.9 5.6-1.4 0-0.4 0.6-2.3 1.5-4.2 0.9-1.9 1.4-4.6 1.1-6-0.2-1.4-1-3.1-1.7-3.8-0.6-0.7-1.8-1.3-2.5-1.2-0.6 0-1.2-0.4-1.2-1 0-0.6-2.3-1-5-1-3.9 0-5.2 0.4-5.7 1.7zm1.2 23.7c-2.5 2-2.9 2.9-2.7 6.7 0.1 2.4 0.7 5 1.4 5.7 0.8 0.8 0.9 1.5 0.3 2-0.6 0.4-1.6 1.7-2.3 2.9-0.9 1.7-0.9 2.5-0.1 3 0.8 0.5 0.9 2.2 0.5 4.5-0.5 3.3-0.2 4.1 2.4 6.5 2.8 2.6 2.8 2.9 1.2 4.5-1.5 1.6-1.5 1.9-0.2 3.3 0.8 0.9 2.3 1.8 3.2 2.1 1.4 0.3 1.6 0.8 0.8 2.4q-1 2 0 4c0.6 1.1 1.6 2 2.2 2 0.7 0-0.5 1.1-2.7 2.4-2.2 1.3-4.3 3.1-4.8 4-0.4 0.9-0.4 2.3 0 3.2 0.5 0.8 2.3 1.9 4 2.5 1.8 0.5 3.1 1.3 2.8 1.9-0.3 0.6 0.4 1.9 1.5 3 1.1 1.1 3.3 2 5 2 2.8 0 2.9 0.2 2.4 2.7-0.4 1.6-0.8 3-1 3.3-0.2 0.3 0 1.2 0.5 2 0.5 0.8 2.4 1.6 4.2 1.7 1.9 0.2 4-0.3 4.7-1 0.7-0.6 1.3-2.3 1.2-3.7 0-1.4 0.7-3.5 1.5-4.8 0.8-1.2 2-2.2 2.6-2.2 0.6 0 3.2-2.1 5.7-4.7 2.6-2.6 4.6-5 4.4-5.5-0.1-0.4 0.2-1.7 0.8-2.8q1-2 0-2.5c-0.6-0.3-0.5-1.1 0.2-2 0.7-0.9 1.7-1.4 2.3-1.2 0.6 0.2 2-0.9 3.2-2.5 1.3-1.5 2.3-3.2 2.3-3.8 0-0.6-0.6-1.9-1.3-3-1-1.7-0.9-2.2 1.2-3.7 1.7-1.3 2.1-2.4 1.7-4.1-0.3-1.2-1.3-2.9-2.1-3.7-1.2-1.2-4.3-1.5-14.5-1.5-7.7 0-13.2 0.4-13.5 1-0.3 0.6-2.1 1-4 1-1.9 0-5.2-0.8-7.3-1.7-2-1-3.8-1.9-4-2-0.1-0.2 0.4-0.9 1-1.7 1-1.1 5.3-1.3 20.6-1.2 10.5 0 19.2-0.1 19.2-0.4 0-0.3 1-0.4 2.3-0.2 1.2 0.2 7.1-0.1 13.2-0.7 6.1-0.6 12.1-1.2 13.5-1.4 1.4-0.1 4.6-1.8 7.2-3.7 2.5-1.9 4.4-3.7 4.2-4-0.2-0.3 0.6-1 1.8-1.5 1.3-0.6 2.3-1.9 2.2-3-0.1-1.1-0.1-2.7-0.2-3.5-0.1-0.8-1.6-2.1-3.4-2.9-2.7-1.2-5.7-1.3-15.8-0.6-6.9 0.5-19.8 0.9-28.7 1-8.8 0-16.5 0.3-16.9 0.7-0.4 0.5-1.6 0.8-2.6 0.8-1 0-1.8-0.4-1.8-1 0-0.6-3-1-7-1-4 0-7-0.4-7-1 0-0.6-0.6-1-1.3-1-0.6 0-2.5 1.1-4.2 2.4z"/>
	</g>
</svg>