<?xml version="1.0" standalone="no"?>
<!DOCTYPE svg PUBLIC "-//W3C//DTD SVG 20010904//EN"
 "http://www.w3.org/TR/2001/REC-SVG-20010904/DTD/svg10.dtd">
<svg version="1.0" xmlns="http://www.w3.org/2000/svg"
 width="300.000000pt" height="402.000000pt" viewBox="0 0 300.000000 402.000000"
 preserveAspectRatio="xMidYMid meet">
<metadata>
Created by potrace 1.10, written by Peter Selinger 2001-2011
</metadata>
<g transform="translate(0.000000,402.000000) scale(0.100000,-0.100000)"
fill="#000000" stroke="none">
<path d="M1468 3826 c-43 -23 -158 -118 -215 -178 -55 -59 -131 -171 -155
-228 -42 -101 -48 -289 -12 -380 27 -68 96 -172 150 -224 41 -40 139 -96 207
-119 16 -6 17 -31 17 -339 0 -183 -3 -369 -6 -414 l-7 -81 -435 1 -436 1 -7
31 c-10 51 -47 101 -107 148 -74 56 -151 95 -205 102 -37 5 -46 3 -74 -23 -28
-26 -32 -37 -38 -107 -10 -106 0 -586 14 -665 31 -170 106 -340 224 -506 74
-105 184 -228 197 -220 4 2 13 33 19 67 35 177 107 337 209 464 109 135 210
230 317 299 50 32 110 73 135 92 78 59 302 267 310 288 4 11 3 119 -2 240 -5
121 -6 311 -3 423 l7 202 27 7 c69 16 140 64 200 133 33 39 61 77 61 84 0 6
14 34 31 62 42 65 59 131 59 232 0 215 -137 421 -395 595 -46 31 -51 32 -87
13z m137 -96 c111 -80 194 -173 243 -274 62 -127 64 -135 60 -253 -3 -114 -8
-127 -77 -250 -61 -108 -109 -151 -245 -214 -56 -27 -57 -31 -61 -357 -2 -165
1 -349 5 -408 11 -125 6 -138 -65 -199 -26 -22 -64 -56 -84 -76 -63 -62 -193
-163 -276 -214 -77 -48 -233 -192 -332 -310 -78 -91 -177 -312 -198 -438 -3
-20 -11 -37 -17 -37 -30 0 -185 208 -262 351 -25 47 -56 122 -67 165 -46 171
-51 226 -52 536 0 257 2 300 16 322 22 34 54 42 77 21 11 -10 26 -15 34 -12
16 6 66 -13 66 -25 0 -5 7 -8 15 -8 8 0 15 -4 15 -10 0 -5 6 -10 14 -10 20 0
99 -89 124 -141 13 -26 33 -51 48 -58 19 -8 137 -11 438 -8 434 3 450 5 461
50 11 48 13 796 1 819 -7 14 -43 39 -92 63 -45 22 -89 48 -98 57 -9 10 -25 23
-34 30 -65 49 -145 195 -160 289 -10 66 -5 190 9 203 5 6 9 19 9 30 1 19 9 39
65 146 22 42 171 193 240 243 28 20 61 37 73 37 13 0 61 -27 107 -60z"/>
<path d="M1464 3712 c-60 -33 -175 -134 -212 -185 -82 -115 -106 -187 -107
-327 0 -89 2 -100 36 -170 20 -41 52 -92 70 -112 43 -47 122 -97 163 -104 30
-5 30 -4 -9 16 -94 47 -138 92 -185 183 l-44 88 0 107 c0 72 6 121 16 150 25
68 79 151 133 205 49 48 165 137 180 137 11 0 166 -123 197 -156 74 -79 138
-231 138 -328 0 -69 -39 -199 -78 -261 -17 -27 -32 -46 -32 -41 0 6 -15 -4
-32 -21 -18 -16 -51 -42 -73 -57 -32 -21 -36 -26 -18 -26 21 0 145 87 170 119
38 50 96 228 87 269 -2 9 -5 42 -7 72 -3 30 -17 86 -33 124 -26 65 -111 192
-139 208 -7 5 -46 35 -87 68 -40 33 -80 60 -88 60 -8 -1 -29 -9 -46 -18z"/>
<path d="M1474 3439 c-17 -19 -19 -42 -22 -263 -3 -235 3 -374 16 -361 4 4 9
137 12 297 5 265 7 292 23 302 13 8 20 8 27 -4 5 -8 9 -125 9 -260 0 -135 3
-259 6 -275 13 -56 16 -65 26 -65 6 0 7 5 3 12 -4 7 -7 146 -6 309 l3 297 -23
16 c-30 22 -51 20 -74 -5z"/>
<path d="M1316 2946 c6 -16 77 -50 94 -44 6 2 -14 15 -44 30 -35 17 -53 22
-50 14z"/>
<path d="M1669 2931 c-48 -24 -86 -51 -72 -51 19 0 63 22 63 32 0 4 6 8 14 8
7 0 19 7 26 15 16 19 13 18 -31 -4z"/>
<path d="M277 2038 c-24 -24 -24 -28 -31 -254 -7 -238 -3 -381 15 -449 26
-101 76 -242 100 -283 10 -18 19 -40 19 -48 0 -8 4 -14 8 -14 5 0 15 -12 23
-27 27 -54 61 -102 76 -107 14 -6 14 -4 1 16 -167 255 -235 492 -226 783 l3
100 165 -1 c91 -1 307 -5 482 -9 174 -4 329 -4 345 0 l28 7 -25 10 c-14 5 -56
9 -95 9 -204 -1 -329 0 -410 5 -118 8 -419 7 -455 -1 -36 -8 -40 9 -31 140 l6
100 60 -2 c55 -3 58 -1 41 12 -11 8 -27 15 -36 15 -9 0 -21 5 -27 11 -9 9 -18
5 -36 -13z"/>
<path d="M441 1920 c22 -59 23 -67 7 -73 -8 -2 -7 -3 2 -3 8 1 16 9 18 19 4
20 -27 107 -38 107 -5 0 0 -23 11 -50z"/>
<path d="M310 1840 c0 -5 22 -10 49 -10 28 0 53 5 56 10 4 6 -15 10 -49 10
-31 0 -56 -4 -56 -10z"/>
<path d="M1265 1720 c-21 -23 -207 -167 -319 -247 -81 -58 -179 -163 -251
-268 -27 -39 -58 -83 -70 -100 -13 -16 -26 -41 -30 -55 -4 -14 -23 -57 -41
-96 -38 -79 -43 -104 -19 -84 8 7 15 17 15 23 0 11 48 118 78 174 25 47 199
269 253 323 42 42 113 95 268 202 72 49 141 114 141 133 0 20 -3 19 -25 -5z"/>
<path d="M373 1559 c-60 -10 -78 -21 -50 -31 6 -3 53 2 102 10 76 13 110 13
220 3 150 -14 164 -16 187 -26 17 -7 38 0 38 14 0 28 -372 50 -497 30z"/>
<path d="M306 1492 c-13 -21 108 -36 299 -36 184 1 274 8 260 22 -4 4 -115 7
-248 8 -133 0 -256 4 -273 8 -20 5 -34 4 -38 -2z"/>
<path d="M396 3041 c-44 -5 -51 -9 -59 -36 -5 -16 -10 -115 -11 -220 -1 -171
1 -198 22 -270 70 -246 237 -433 449 -502 64 -22 98 -26 193 -27 l116 -1 79
40 c74 37 82 44 107 95 84 170 83 326 -5 509 -24 51 -55 90 -137 171 -89 88
-120 112 -192 147 -47 23 -113 51 -147 63 -97 32 -285 47 -415 31z m384 -61
c137 -41 244 -104 346 -205 77 -76 98 -104 132 -177 56 -118 77 -253 51 -337
-6 -20 -26 -68 -45 -108 -37 -75 -47 -83 -146 -119 -61 -23 -204 -19 -279 6
-32 11 -63 20 -68 20 -27 0 -144 82 -206 144 -99 99 -139 174 -186 341 -15 55
-19 102 -19 220 0 171 5 215 28 233 29 22 300 10 392 -18z"/>
<path d="M488 2957 c-48 -19 -68 -40 -79 -85 -10 -43 -13 -185 -4 -222 3 -14
8 -53 12 -87 3 -35 10 -63 14 -63 5 0 9 -7 9 -16 0 -35 87 -180 140 -234 134
-136 284 -191 475 -175 102 9 105 10 105 55 0 41 17 22 -392 444 -69 71 -114
124 -108 130 19 19 58 -8 125 -90 82 -99 347 -367 393 -395 60 -39 92 11 92
143 0 74 -15 126 -67 237 -27 56 -53 91 -111 147 -41 41 -79 74 -83 74 -4 0
-14 6 -22 14 -22 23 -127 72 -212 101 -97 32 -231 43 -287 22z m259 -48 c124
-40 180 -68 270 -135 88 -66 142 -135 190 -245 28 -65 37 -101 41 -159 5 -85
-7 -144 -30 -148 -16 -3 -334 318 -447 451 -62 75 -67 79 -99 73 -40 -6 -62
-22 -62 -44 0 -9 51 -66 113 -127 62 -60 176 -175 254 -255 77 -80 148 -151
157 -158 9 -7 16 -23 16 -36 0 -29 -15 -32 -138 -35 -109 -3 -166 10 -259 57
-94 47 -176 127 -237 230 -62 106 -79 185 -80 369 -1 160 3 170 71 183 80 16
142 10 240 -21z"/>
<path d="M638 2293 c6 -11 25 -26 42 -33 16 -7 30 -16 30 -21 0 -34 225 -109
329 -109 93 0 91 16 -3 24 -148 12 -253 48 -355 121 -40 29 -51 33 -43 18z"/>
<path d="M2277 3024 c-32 -7 -105 -32 -163 -55 -97 -38 -112 -48 -210 -136
-139 -125 -201 -222 -230 -358 -29 -132 -11 -265 47 -355 63 -98 128 -135 260
-147 136 -12 334 61 425 156 116 123 155 175 199 265 68 138 87 245 83 452 -2
118 -7 165 -17 177 -11 15 -36 17 -175 16 -101 0 -183 -6 -219 -15z m352 -23
c31 -19 31 -324 1 -449 -13 -54 -49 -132 -61 -132 -5 0 -9 -6 -9 -13 0 -28
-36 -84 -108 -170 -77 -91 -149 -153 -189 -163 -13 -4 -23 -9 -23 -14 0 -11
-149 -49 -205 -51 -118 -6 -214 34 -272 113 -49 68 -63 124 -64 252 -1 110 -1
110 42 193 56 111 93 158 194 247 114 99 255 163 407 184 84 12 269 14 287 3z"/>
<path d="M2380 2949 c-165 -21 -298 -70 -403 -148 -64 -47 -137 -129 -137
-153 0 -10 -4 -18 -8 -18 -4 0 -23 -33 -42 -72 -33 -70 -35 -78 -34 -179 0
-111 15 -159 49 -159 23 0 54 28 298 272 214 213 255 246 272 218 3 -5 -109
-124 -249 -264 -141 -140 -260 -266 -266 -281 -9 -24 1 -65 16 -65 3 0 2 5 -1
11 -11 16 2 52 29 79 13 14 133 133 265 265 133 132 241 247 241 257 0 18 -36
48 -58 48 -7 0 -132 -120 -278 -266 -145 -146 -270 -264 -277 -261 -21 6 -22
222 -1 277 51 137 170 268 299 330 83 39 252 80 361 87 87 6 92 5 107 -18 24
-33 24 -256 1 -348 -20 -80 -63 -176 -96 -216 -13 -16 -35 -47 -47 -67 -12
-21 -29 -38 -37 -38 -8 0 -17 -6 -20 -14 -3 -8 -43 -37 -88 -65 -77 -47 -170
-81 -223 -81 -12 0 -25 -4 -28 -10 -6 -10 10 -8 108 11 54 10 120 42 192 93
28 20 61 43 75 52 14 9 34 35 44 58 11 22 34 55 52 73 18 17 35 46 39 64 4 17
15 46 25 63 26 45 42 155 41 288 0 122 -12 169 -46 182 -21 8 -92 6 -175 -5z"/>
<path d="M2220 2841 c-96 -21 -190 -59 -190 -77 0 -10 10 -8 36 8 20 12 55 25
78 29 76 14 158 37 169 48 14 14 3 13 -93 -8z"/>
<path d="M1881 2341 c-8 -5 -20 -7 -27 -4 -6 2 -15 -1 -20 -8 -5 -9 -2 -10 9
-6 10 3 17 2 17 -2 0 -5 -6 -11 -12 -14 -7 -2 -10 -7 -7 -11 3 -3 18 8 34 24
29 31 31 37 6 21z"/>
<path d="M2378 2291 c-7 -10 -15 -19 -18 -19 -6 -1 -121 -56 -174 -83 -31 -16
-66 -22 -170 -26 -74 -4 -122 -9 -111 -14 27 -10 212 -1 255 13 19 6 46 18 60
27 14 9 55 32 93 50 37 18 72 42 78 52 13 24 4 25 -13 0z"/>
<path d="M2590 2123 c-60 -22 -152 -114 -168 -169 -7 -25 -12 -106 -12 -205 0
-90 -5 -181 -10 -201 -8 -27 -55 -82 -193 -223 -256 -264 -319 -310 -458 -342
-56 -12 -73 -13 -82 -3 -9 9 10 32 88 103 189 175 320 311 343 358 31 65 31
175 -2 244 -42 91 -116 135 -225 135 -92 -1 -121 -19 -308 -189 -184 -168
-227 -202 -346 -270 -212 -122 -360 -285 -457 -499 -58 -130 -100 -324 -81
-374 20 -53 238 -246 340 -301 67 -37 258 -84 371 -92 165 -12 373 27 515 98
130 64 314 213 452 364 48 54 124 136 168 183 138 147 251 325 293 460 46 150
53 236 50 556 -3 285 -4 303 -23 324 -32 36 -74 52 -144 56 -44 2 -81 -2 -111
-13z m211 -49 c9 -8 21 -30 27 -50 13 -44 15 -541 2 -599 -4 -22 -11 -53 -13
-70 -18 -119 -70 -256 -129 -340 -18 -26 -46 -69 -63 -96 -35 -56 -245 -289
-390 -432 -274 -270 -473 -360 -794 -359 -160 1 -312 36 -420 98 -103 60 -296
235 -307 278 -16 65 55 316 119 424 18 30 37 62 42 71 54 94 219 250 330 312
99 55 207 131 275 195 19 18 57 52 84 76 27 24 65 59 85 79 91 89 148 121 226
124 113 5 213 -100 214 -226 1 -65 -43 -146 -126 -230 -36 -38 -69 -72 -72
-76 -3 -4 -28 -26 -56 -47 -75 -59 -174 -157 -192 -190 -14 -26 -13 -30 9 -53
21 -23 28 -25 78 -19 93 10 171 46 265 122 55 46 89 79 309 304 85 87 135 160
135 195 -1 102 15 356 24 380 18 50 58 95 111 126 49 29 55 30 131 24 47 -4
87 -13 96 -21z"/>
<path d="M2625 2032 c-44 -21 -101 -79 -116 -121 -6 -14 -14 -108 -19 -208 -8
-163 -11 -186 -34 -230 -16 -32 -93 -117 -228 -253 -198 -199 -264 -260 -311
-285 -129 -69 -130 -69 -211 -73 -77 -4 -84 -3 -113 22 -39 33 -50 74 -29 114
8 16 61 74 117 128 200 195 310 310 326 339 38 70 11 202 -50 241 -83 54 -138
35 -270 -91 -174 -166 -337 -290 -512 -389 -33 -18 -127 -98 -165 -140 -46
-51 -116 -155 -150 -225 -53 -106 -99 -308 -81 -352 9 -22 10 -21 11 11 1 54
45 229 73 291 40 90 139 229 209 295 36 33 129 100 209 150 155 96 263 181
416 328 132 126 170 144 233 111 37 -19 69 -72 76 -128 10 -70 -23 -114 -256
-346 -114 -113 -213 -217 -220 -230 -26 -50 15 -131 77 -152 60 -20 170 -7
246 29 105 49 151 85 340 271 209 206 284 293 303 356 7 25 16 105 19 178 10
222 12 233 53 279 61 67 138 88 167 45 12 -19 14 -73 11 -352 -3 -397 -9 -428
-115 -580 -19 -27 -44 -63 -55 -80 -55 -79 -154 -193 -281 -325 -173 -179
-188 -194 -252 -252 -78 -71 -77 -82 1 -13 98 86 410 403 457 465 15 19 35 44
45 55 51 55 143 201 176 280 29 68 46 201 53 404 8 239 -1 395 -24 421 -24 29
-79 34 -126 12z"/>
<path d="M1669 1514 c-13 -14 -52 -49 -87 -76 -35 -28 -60 -53 -57 -56 3 -4 9
-2 13 3 4 6 25 23 47 40 38 28 115 102 115 111 0 8 -7 3 -31 -22z"/>
<path d="M1935 1459 c-21 -27 -114 -120 -206 -205 -93 -86 -169 -158 -169
-161 0 -10 165 133 278 241 66 63 148 163 140 171 -2 3 -21 -18 -43 -46z"/>
<path d="M1428 1317 c-58 -41 -71 -58 -27 -35 31 16 73 49 83 66 10 16 9 16
-56 -31z"/>
<path d="M2255 1155 c-28 -25 -45 -45 -40 -44 13 0 113 89 100 89 -6 0 -33
-20 -60 -45z"/>
<path d="M2595 1100 c-11 -16 -42 -62 -69 -102 -27 -40 -68 -96 -92 -125 -24
-28 -44 -54 -44 -58 0 -8 102 102 114 124 5 9 21 32 36 51 36 46 91 140 82
140 -4 -1 -16 -14 -27 -30z"/>
<path d="M2254 678 c-47 -53 -243 -231 -284 -258 -25 -17 -40 -30 -34 -30 21
0 180 129 269 219 49 50 85 91 79 91 -6 0 -19 -10 -30 -22z"/>
<path d="M814 457 c9 -12 37 -40 62 -62 26 -22 54 -47 63 -56 71 -73 240 -136
387 -143 49 -3 76 -3 59 0 -290 43 -339 64 -493 209 -82 77 -103 92 -78 52z"/>
<path d="M1735 298 c-10 -6 -33 -15 -50 -20 -25 -6 -23 -7 10 -2 59 8 64 9 77
22 16 16 -9 16 -37 0z"/>
</g>
</svg>
